<?xml version="1.0" encoding="UTF-8" standalone="no"?>
<!-- Created with Inkscape (http://www.inkscape.org/) -->

<svg
   width="512"
   height="512"
   viewBox="0 0 135.46667 135.46667"
   version="1.1"
   id="svg5"
   inkscape:version="1.1 (c68e22c387, 2021-05-23)"
   sodipodi:docname="tumlare.svg"
   xmlns:inkscape="http://www.inkscape.org/namespaces/inkscape"
   xmlns:sodipodi="http://sodipodi.sourceforge.net/DTD/sodipodi-0.dtd"
   xmlns:xlink="http://www.w3.org/1999/xlink"
   xmlns="http://www.w3.org/2000/svg"
   xmlns:svg="http://www.w3.org/2000/svg">
  <sodipodi:namedview
     id="namedview7"
     pagecolor="#505050"
     bordercolor="#ffffff"
     borderopacity="1"
     inkscape:pageshadow="0"
     inkscape:pageopacity="0"
     inkscape:pagecheckerboard="1"
     inkscape:document-units="px"
     showgrid="false"
     inkscape:snap-page="true"
     inkscape:zoom="0.64453125"
     inkscape:cx="-162.90909"
     inkscape:cy="-324.26667"
     inkscape:window-width="2560"
     inkscape:window-height="1440"
     inkscape:window-x="0"
     inkscape:window-y="822"
     inkscape:window-maximized="1"
     inkscape:current-layer="layer1" />
  <defs
     id="defs2">
    <linearGradient
       inkscape:collect="always"
       id="linearGradient7698">
      <stop
         style="stop-color:#ffffff;stop-opacity:0.00036891"
         offset="0"
         id="stop7694" />
      <stop
         style="stop-color:#ffffff;stop-opacity:0.14509804;"
         offset="0.67815626"
         id="stop8455" />
      <stop
         style="stop-color:#ffffff;stop-opacity:1"
         offset="1"
         id="stop7696" />
    </linearGradient>
    <linearGradient
       inkscape:collect="always"
       id="linearGradient7587">
      <stop
         style="stop-color:#62caeb;stop-opacity:1;"
         offset="0"
         id="stop7583" />
      <stop
         style="stop-color:#43b29e;stop-opacity:1"
         offset="1"
         id="stop7585" />
    </linearGradient>
    <linearGradient
       inkscape:collect="always"
       id="linearGradient7259">
      <stop
         style="stop-color:#3eccac;stop-opacity:1"
         offset="0"
         id="stop7255" />
      <stop
         style="stop-color:#8569e7;stop-opacity:0"
         offset="1"
         id="stop7257" />
    </linearGradient>
    <linearGradient
       inkscape:collect="always"
       xlink:href="#linearGradient7259"
       id="linearGradient7261"
       x1="-85.840424"
       y1="-479.97293"
       x2="-67.394249"
       y2="-364.66357"
       gradientUnits="userSpaceOnUse" />
    <linearGradient
       inkscape:collect="always"
       xlink:href="#linearGradient7259"
       id="linearGradient7326"
       x1="-57.615356"
       y1="-476.49973"
       x2="-41.393269"
       y2="-355.38135"
       gradientUnits="userSpaceOnUse" />
    <linearGradient
       inkscape:collect="always"
       xlink:href="#linearGradient7259"
       id="linearGradient7334"
       x1="-75.826973"
       y1="-438.62497"
       x2="-54.777779"
       y2="-279.98621"
       gradientUnits="userSpaceOnUse" />
    <linearGradient
       inkscape:collect="always"
       xlink:href="#linearGradient7587"
       id="linearGradient7589"
       x1="-24.301899"
       y1="-139.32542"
       x2="2.7093346"
       y2="-83.332535"
       gradientUnits="userSpaceOnUse" />
    <radialGradient
       inkscape:collect="always"
       xlink:href="#linearGradient7698"
       id="radialGradient7700"
       cx="-19.987679"
       cy="-105.25904"
       fx="-19.987679"
       fy="-105.25904"
       r="20.607353"
       gradientUnits="userSpaceOnUse"
       gradientTransform="matrix(0.00975406,-2.6751788,2.6333224,0.00960144,282.302,-148.35396)" />
    <linearGradient
       inkscape:collect="always"
       xlink:href="#linearGradient7259"
       id="linearGradient12406"
       gradientUnits="userSpaceOnUse"
       x1="-75.826973"
       y1="-438.62497"
       x2="-54.777779"
       y2="-279.98621"
       gradientTransform="matrix(0.86964642,0,0,0.86964642,109.83055,435.00457)" />
    <linearGradient
       inkscape:collect="always"
       xlink:href="#linearGradient7259"
       id="linearGradient12408"
       gradientUnits="userSpaceOnUse"
       x1="-85.840424"
       y1="-479.97293"
       x2="-67.394249"
       y2="-364.66357"
       gradientTransform="matrix(0.86964642,0,0,0.86964642,109.83055,435.00457)" />
    <linearGradient
       inkscape:collect="always"
       xlink:href="#linearGradient7259"
       id="linearGradient12410"
       gradientUnits="userSpaceOnUse"
       x1="-57.615356"
       y1="-476.49973"
       x2="-41.393269"
       y2="-355.38135"
       gradientTransform="matrix(0.86964642,0,0,0.86964642,109.83055,435.00457)" />
    <linearGradient
       inkscape:collect="always"
       xlink:href="#linearGradient7587"
       id="linearGradient12412"
       gradientUnits="userSpaceOnUse"
       x1="-24.301899"
       y1="-139.32542"
       x2="2.7093346"
       y2="-83.332535"
       gradientTransform="matrix(3.2868525,0,0,3.2868525,109.83055,435.00457)" />
    <linearGradient
       inkscape:collect="always"
       xlink:href="#linearGradient7587"
       id="linearGradient12632"
       gradientUnits="userSpaceOnUse"
       gradientTransform="matrix(3.2868525,0,0,3.2868525,109.83055,435.00457)"
       x1="-24.301899"
       y1="-139.32542"
       x2="2.7093346"
       y2="-83.332535" />
    <linearGradient
       inkscape:collect="always"
       xlink:href="#linearGradient7259"
       id="linearGradient12635"
       gradientUnits="userSpaceOnUse"
       gradientTransform="matrix(0.86964642,0,0,0.86964642,109.83055,435.00457)"
       x1="-75.826973"
       y1="-438.62497"
       x2="-54.777779"
       y2="-279.98621" />
  </defs>
  <g
     inkscape:label="Layer 1"
     inkscape:groupmode="layer"
     id="layer1">
    <path
       id="path5986"
       style="fill:#c9cac8;fill-opacity:1;stroke:#000000;stroke-width:0.999999px;stroke-linecap:butt;stroke-linejoin:miter;stroke-opacity:1"
       d="M -935.81055 -722.06445 C -943.13861 -722.01215 -950.51776 -720.83198 -958.09375 -718.41797 C -985.48758 -709.68257 -1002.3282 -685.16914 -1008.6074 -657.05078 C -1026.6508 -653.77388 -1044.6159 -649.68169 -1051.1562 -640.85742 C -1050.3505 -640.32897 -1049.4902 -639.77966 -1048.5098 -639.19141 C -1042.2411 -635.43021 -1032.528 -630.76822 -1018.8848 -627.35742 C -1005.3033 -623.96208 -994.70632 -623.87894 -987.56445 -624.60352 C -980.42258 -625.32805 -977.0293 -626.74414 -977.0293 -626.74414 A 4.0000002 4.0000002 0 0 1 -971.82617 -624.53711 A 4.0000002 4.0000002 0 0 1 -974.02539 -619.32617 C -974.02539 -619.32617 -978.75406 -617.45787 -986.75195 -616.64648 C -994.74989 -615.8351 -1006.3163 -615.96583 -1020.8203 -619.5918 C -1035.2625 -623.20234 -1045.7306 -628.1942 -1052.627 -632.33203 C -1053.0194 -632.56749 -1053.3618 -632.79075 -1053.7324 -633.02148 C -1053.7296 -632.78388 -1053.773 -632.5648 -1053.7578 -632.32227 C -1053.0576 -621.39777 -1046.5284 -609.05701 -1028.9414 -596.07227 C -1017.8489 -567.3871 -1007.6731 -552.7237 -975.87109 -543.875 C -970.49633 -516.36605 -973.09895 -445.35041 -1025.9824 -397.51953 C -1039.311 -449.96569 -1101.6621 -456.18555 -1101.6621 -456.18555 C -1101.6621 -456.18555 -1105.7383 -427.15588 -1103.5254 -401.49414 C -1101.3125 -375.83239 -1075.8066 -364.25586 -1075.8066 -364.25586 C -1075.8066 -364.25586 -1093.9729 -353.14436 -1104.0762 -340.77148 C -1122.6055 -318.07959 -1120.752 -285.50195 -1120.752 -285.50195 C -1120.752 -285.50195 -1092.6803 -277.87373 -1066.7207 -284.46484 C -1040.7611 -291.05592 -1025.5117 -338.42969 -1025.5117 -338.42969 C -1025.5117 -338.42969 -986.91703 -310.97684 -939.23047 -328.59766 C -820.36472 -364.042 -795.80313 -472.87991 -794.07617 -539.58789 C -768.68532 -553.541 -754.35257 -554.4587 -748.35352 -557.07617 C -742.11597 -559.79789 -743.23605 -576.83237 -785.31055 -588.17383 C -789.81802 -589.38884 -794.3668 -590.28744 -798.89844 -590.92578 C -809.98664 -638.23222 -839.65757 -678.8295 -886.61328 -707.20898 C -903.81208 -716.84163 -919.68882 -722.17949 -935.81055 -722.06445 z M -912.89453 -635.58398 A 8.2230114 13.653338 29.2051 0 1 -910.10742 -634.92969 A 8.2230114 13.653338 29.2051 0 1 -909.5918 -619 A 8.2230114 13.653338 29.2051 0 1 -923.43164 -611.09375 A 8.2230114 13.653338 29.2051 0 1 -923.94727 -627.02344 A 8.2230114 13.653338 29.2051 0 1 -912.89453 -635.58398 z M -911.48242 -526.92969 C -915.34925 -520.96952 -918.59635 -511.50464 -928.625 -496.60352 C -946.47347 -470.08329 -953.96838 -460.16161 -957.74609 -454.48438 C -961.52422 -448.80737 -954.71101 -438.7293 -922.91797 -458.39648 C -891.12492 -478.06371 -862.57812 -517.30664 -862.57812 -517.30664 C -862.57812 -517.30664 -886.61273 -483.76237 -897.49414 -473.32422 C -909.46289 -461.84303 -926.21463 -448.95251 -938.31641 -444.45312 C -950.41823 -439.9537 -962.01746 -441.67718 -965.58594 -446.02148 C -969.15445 -450.36575 -956.4314 -463.70996 -943.70898 -479.8457 C -930.98657 -495.98145 -912.36914 -526.85547 -912.36914 -526.85547 L -911.48242 -526.92969 z "
       transform="scale(0.26458334)" />
    <rect
       style="opacity:1;fill:url(#linearGradient7589);fill-opacity:1;stroke:none;stroke-width:2.46063;stroke-linecap:round;stroke-linejoin:bevel;stroke-miterlimit:4;stroke-dasharray:none"
       id="rect6125"
       width="41.214706"
       height="41.214706"
       x="-33.415112"
       y="-132.34685"
       ry="14.22176" />
    <path
       id="rect7216"
       style="opacity:1;fill:url(#linearGradient7326);fill-opacity:1;stroke:none;stroke-width:9.30002;stroke-linecap:round;stroke-linejoin:bevel;stroke-miterlimit:4;stroke-dasharray:none"
       d="M -60.607422 -467.68555 C -61.174333 -467.66823 -61.724936 -467.63298 -62.259766 -467.57812 C -79.374328 -465.8228 -96.92694 -451.56139 -116.45508 -451.3418 C -119.63728 -451.30604 -122.81858 -451.84105 -125.92578 -452.76758 C -126.16572 -450.69822 -126.29297 -448.59281 -126.29297 -446.45703 L -126.29297 -398.1875 C -126.29297 -368.40915 -102.31936 -344.43555 -72.541016 -344.43555 L -24.273438 -344.43555 C 5.5049111 -344.43555 29.478516 -368.40915 29.478516 -398.1875 L 29.478516 -446.45703 C 29.478516 -446.90729 29.471836 -447.35519 29.460938 -447.80273 C 21.936312 -446.73985 14.948962 -446.39975 9.7089844 -447.39258 C -10.484271 -451.21865 -43.033181 -468.2223 -60.607422 -467.68555 z "
       transform="scale(0.26458334)" />
    <path
       id="rect7213"
       style="opacity:1;fill:url(#linearGradient7261);fill-opacity:1;stroke:none;stroke-width:9.30002;stroke-linecap:round;stroke-linejoin:bevel;stroke-miterlimit:4;stroke-dasharray:none"
       d="M -116.99023 -468.69922 C -118.58513 -468.66353 -120.15228 -468.52552 -121.69531 -468.30273 C -124.64976 -461.63391 -126.29297 -454.24498 -126.29297 -446.45703 L -126.29297 -398.1875 C -126.29297 -368.40915 -102.31936 -344.43555 -72.541016 -344.43555 L -24.273438 -344.43555 C 5.5049111 -344.43555 29.478516 -368.40915 29.478516 -398.1875 L 29.478516 -446.45703 C 29.478516 -447.4366 29.449673 -448.40864 29.398438 -449.375 C 22.16909 -457.42419 14.507862 -463.2098 7.2949219 -463.41016 C -17.293572 -464.09319 -27.397181 -436.98556 -56.994141 -435.76367 C -92.592803 -434.29404 -87.492141 -467.5787 -114.48047 -468.67578 C -115.32385 -468.71007 -116.16074 -468.71778 -116.99023 -468.69922 z "
       transform="scale(0.26458334)" />
    <path
       id="rect7210"
       style="opacity:1;fill:url(#linearGradient7334);fill-opacity:1;stroke:none;stroke-width:9.30002;stroke-linecap:round;stroke-linejoin:bevel;stroke-miterlimit:4;stroke-dasharray:none"
       d="M -126.29297 -437.14844 L -126.29297 -398.1875 C -126.29297 -368.40915 -102.31936 -344.43555 -72.541016 -344.43555 L -24.273438 -344.43555 C 5.5049111 -344.43555 29.478516 -368.40915 29.478516 -398.1875 L 29.478516 -429.67578 C 25.381373 -431.25738 21.131721 -432.17508 16.730469 -432.25195 C -33.516097 -433.1296 -10.039213 -409.87148 -51.728516 -405.26367 C -93.417819 -400.6559 -85.298875 -417.98914 -110.9707 -433.12891 C -115.48847 -435.79323 -120.72804 -436.98557 -126.29297 -437.14844 z "
       transform="scale(0.26458334)" />
    <rect
       style="opacity:0.59210526;fill:url(#radialGradient7700);fill-opacity:1;stroke:none;stroke-width:2.46063;stroke-linecap:round;stroke-linejoin:bevel;stroke-miterlimit:4;stroke-dasharray:none"
       id="rect7671"
       width="41.214706"
       height="41.214706"
       x="-33.415112"
       y="-132.34685"
       ry="14.22176" />
    <path
       id="path11121"
       style="fill:#ffffff;fill-opacity:1;stroke:none;stroke-width:0.0670757px;stroke-linecap:butt;stroke-linejoin:miter;stroke-opacity:1"
       d="m -13.381197,-126.82544 c -0.49154,0.004 -0.9865,0.0827 -1.49467,0.24459 -1.83746,0.58593 -2.96706,2.23019 -3.38824,4.11625 -1.21028,0.2198 -2.4153,0.49429 -2.854,1.08618 0.0541,0.0354 0.11175,0.0723 0.17751,0.11175 0.42048,0.25229 1.07199,0.565 1.98712,0.79378 0.911,0.22774 1.6218,0.23332 2.10084,0.18472 0.47905,-0.0486 0.70666,-0.14359 0.70666,-0.14359 a 0.26830334,0.26830334 0 0 1 0.349,0.14804 0.26830334,0.26830334 0 0 1 -0.14751,0.34953 c 0,0 -0.31718,0.12532 -0.85365,0.17975 -0.53647,0.0544 -1.31229,0.0456 -2.28516,-0.19757 -0.96872,-0.24218 -1.67088,-0.57701 -2.13346,-0.85456 -0.0263,-0.0158 -0.0493,-0.0308 -0.0741,-0.0462 1.9e-4,0.0159 -0.003,0.0306 -0.002,0.0469 0.047,0.73277 0.48491,1.56053 1.66458,2.4315 0.74404,1.92408 1.42659,2.90764 3.55973,3.50117 0.36052,1.84519 0.18595,6.60862 -3.36125,9.81692 -0.89403,-3.51787 -5.07628,-3.93508 -5.07628,-3.93508 0,0 -0.27342,1.94719 -0.12498,3.66848 0.14843,1.72128 1.85926,2.49779 1.85926,2.49779 0,0 -1.21852,0.74531 -1.89621,1.57523 -1.24287,1.522079 -1.11855,3.707244 -1.11855,3.707244 0,0 1.88294,0.51167 3.6242,0.0696 1.74126,-0.4421 2.76413,-3.619724 2.76413,-3.619724 0,0 2.58877,1.841419 5.78738,0.65949 7.9730199,-2.37746 9.6205119,-9.67785 9.7363489,-14.15235 1.7031119,-0.93591 2.664494,-0.99747 3.06688495,-1.17304 0.418389,-0.18256 0.343258,-1.32516 -2.47892395,-2.0859 -0.302342,-0.0815 -0.607455,-0.14177 -0.911419,-0.18459 -0.74375,-3.17312 -2.733951,-5.89622 -5.8835409,-7.79979 -1.15363,-0.64612 -2.21857,-1.00416 -3.29995,-0.99644 z m 1.53711,5.80075 a 0.55156533,0.91580903 29.2051 0 1 0.18695,0.0439 0.55156533,0.91580903 29.2051 0 1 0.0346,1.0685 0.55156533,0.91580903 29.2051 0 1 -0.92832,0.53032 0.55156533,0.91580903 29.2051 0 1 -0.0346,-1.0685 0.55156533,0.91580903 29.2051 0 1 0.74137,-0.5742 z m 0.0947,7.28807 c -0.25937,0.39979 -0.47718,1.03465 -1.14985,2.03415 -1.19721,1.77887 -1.69993,2.44438 -1.95333,2.82518 -0.25342,0.38079 0.20358,1.05679 2.33613,-0.26241 2.13254,-1.31919 4.0473399,-3.95144 4.0473399,-3.95144 0,0 -1.6121399,2.25001 -2.3420199,2.95015 -0.80281,0.77011 -1.92645,1.63476 -2.73818,1.93656 -0.81174,0.3018 -1.58977,0.1862 -1.82913,-0.1052 -0.23936,-0.2914 0.61405,-1.18647 1.46742,-2.26879 0.85336,-1.08232 2.10214,-3.15322 2.10214,-3.15322 z" />
    <rect
       style="opacity:1;fill:url(#linearGradient12412);fill-opacity:1;stroke:none;stroke-width:8.08773;stroke-linecap:round;stroke-linejoin:bevel;stroke-miterlimit:4;stroke-dasharray:none"
       id="rect12392"
       width="135.46667"
       height="135.46667"
       x="0"
       y="1.110223e-16"
       ry="46.744827" />
    <path
       id="path12394"
       style="opacity:1;fill:url(#linearGradient12410);fill-opacity:1;stroke:none;stroke-width:8.08773;stroke-linecap:round;stroke-linejoin:bevel;stroke-miterlimit:4;stroke-dasharray:none"
       d="m 57.123522,28.283504 c -0.493015,0.01643 -0.971844,0.04569 -1.436956,0.09334 C 40.802948,29.903358 25.53838,42.305737 8.5558028,42.496704 5.7884143,42.526291 3.0218079,42.062543 0.31964041,41.256771 0.1109909,43.056388 3.2257246e-4,44.887362 3.2257246e-4,46.74473 v 41.977414 c 0,25.896656 20.84856642754,46.745226 46.74519842754,46.745226 h 41.975728 c 25.896621,0 46.745191,-20.84858 46.745191,-46.745226 V 46.744736 c 0,-0.391562 -0.006,-0.781088 -0.0155,-1.170284 -6.54376,0.924329 -12.62029,1.220113 -17.17722,0.356689 C 100.71279,42.603827 72.406742,27.81664 57.123367,28.283438 Z" />
    <path
       id="path12396"
       style="opacity:1;fill:url(#linearGradient12408);fill-opacity:1;stroke:none;stroke-width:8.08773;stroke-linecap:round;stroke-linejoin:bevel;stroke-miterlimit:4;stroke-dasharray:none"
       d="M 8.0904107,27.40197 C 6.7034115,27.431557 5.3405444,27.553165 3.998654,27.746761 1.4293278,33.546281 3.1604591e-4,39.972045 3.1604591e-4,46.744802 v 41.977414 c 0,25.896654 20.84856595409,46.745234 46.74519795409,46.745234 h 41.975728 c 25.896628,0 46.745198,-20.84858 46.745198,-46.745234 V 46.744802 c 0,-0.851887 -0.025,-1.697199 -0.0696,-2.537614 -6.28703,-6.999945 -12.9496,-12.03136 -19.22231,-12.205596 C 94.791247,31.407591 86.004679,54.981622 60.265789,56.044261 29.307538,57.322322 33.74331,28.376424 10.273006,27.422348 9.539561,27.392767 8.8117631,27.385865 8.0904009,27.402628 Z" />
    <path
       id="path12398"
       style="opacity:1;fill:url(#linearGradient12635);fill-opacity:1;stroke:none;stroke-width:8.08773;stroke-linecap:round;stroke-linejoin:bevel;stroke-miterlimit:4;stroke-dasharray:none"
       d="m 3.1604591e-4,54.839991 v 33.882225 c 0,25.896654 20.84856595409,46.745234 46.74519795409,46.745234 h 41.975728 c 25.896628,0 46.745198,-20.84858 46.745198,-46.745234 V 61.338559 c -3.56307,-1.375417 -7.25877,-2.173497 -11.0863,-2.240352 C 80.683396,58.334968 101.09998,78.561306 64.845029,82.568472 28.590074,86.575605 35.650687,71.501803 13.325273,58.33556 9.3964121,56.018525 4.8398385,54.981622 3.1604591e-4,54.839991 Z" />
    <path
       id="path12494"
       style="opacity:1;fill:url(#linearGradient12406);fill-opacity:1;stroke:none;stroke-width:8.08773;stroke-linecap:round;stroke-linejoin:bevel;stroke-miterlimit:4;stroke-dasharray:none"
       d="m 3.1604591e-4,54.839991 v 33.882225 c 0,25.896654 20.84856595409,46.745234 46.74519795409,46.745234 h 41.975728 c 25.896628,0 46.745198,-20.84858 46.745198,-46.745234 V 61.338559 c -3.56307,-1.375417 -7.25877,-2.173497 -11.0863,-2.240352 C 80.683396,58.334968 101.09998,78.561306 64.845029,82.568472 28.590074,86.575605 35.650687,71.501803 13.325273,58.33556 9.3964121,56.018525 4.8398385,54.981622 3.1604591e-4,54.839991 Z" />
    <path
       id="rect12630"
       style="opacity:1;fill:url(#linearGradient12632);fill-opacity:1;stroke:none;stroke-width:8.08773;stroke-linecap:round;stroke-linejoin:bevel;stroke-miterlimit:4;stroke-dasharray:none"
       d="m 135.46615,83.011934 c -8.65942,0.842388 -17.58716,2.729764 -24.42143,6.580082 C 91.88511,100.38614 79.201787,94.719408 45.96731,89.700814 27.10592,86.852591 11.160509,91.721538 0.64377653,96.515307 4.3334002,118.67636 23.505392,135.46597 46.745231,135.46597 h 41.977427 c 25.896632,0 46.743492,-20.84687 46.743492,-46.743488 z" />
    <path
       id="path12402"
       style="fill:#ffffff;fill-opacity:1;stroke:none;stroke-width:0.220468px;stroke-linecap:butt;stroke-linejoin:miter;stroke-opacity:1"
       d="m 65.848527,18.148033 c -1.615619,0.01314 -3.24248,0.271823 -4.91276,0.803932 -6.039459,1.925865 -9.752288,7.330306 -11.136645,13.529506 -3.978012,0.722451 -7.938736,1.624659 -9.380677,3.570114 0.177818,0.116355 0.367306,0.23764 0.583449,0.367306 1.382055,0.82924 3.523473,1.857072 6.531371,2.609038 2.994322,0.748548 5.330617,0.766888 6.90515,0.607147 1.574567,-0.15974 2.322688,-0.471958 2.322688,-0.471958 a 0.88187354,0.88187354 0 0 1 1.147112,0.486586 0.88187354,0.88187354 0 0 1 -0.484844,1.148852 c 0,0 -1.042524,0.411909 -2.805821,0.590813 -1.763299,0.178804 -4.313304,0.14988 -7.510985,-0.649384 -3.18404,-0.79601 -5.491936,-1.896547 -7.012368,-2.808813 -0.08645,-0.05193 -0.162043,-0.10123 -0.243556,-0.151852 6.24e-4,0.05226 -0.0098,0.100577 -0.0065,0.154153 0.154482,2.408507 1.593828,5.129232 5.471229,7.991982 2.445551,6.324168 4.688992,9.556984 11.700308,11.50783 1.184976,6.064868 0.61119,21.721561 -11.047934,32.266769 -2.938592,-11.56272 -16.685032,-12.934028 -16.685032,-12.934028 0,0 -0.89869,6.400127 -0.41079,12.057754 0.487867,5.657592 6.111113,8.209872 6.111113,8.209872 0,0 -4.005095,2.449721 -6.232563,5.177538 -4.08513,5.00286 -3.676509,12.18519 -3.676509,12.18519 0,0 6.188946,1.68179 11.912212,0.22876 5.723265,-1.45311 9.085288,-11.89751 9.085288,-11.89751 0,0 8.508906,6.05247 19.022265,2.16765 26.206142,-7.814362 31.621205,-31.809674 32.001944,-46.516696 5.597878,-3.076198 8.757808,-3.278537 10.080408,-3.85561 1.37518,-0.600048 1.12823,-4.355605 -8.147866,-6.856046 -0.993754,-0.267878 -1.996616,-0.465977 -2.9957,-0.60672 C 93.58789,36.630631 87.046393,27.680202 76.694155,21.423448 72.902344,19.299746 69.402043,18.122922 65.847706,18.148296 Z m 5.052255,19.06621 a 1.8129139,3.0101293 29.2051 0 1 0.614477,0.144294 1.8129139,3.0101293 29.2051 0 1 0.113723,3.512002 1.8129139,3.0101293 29.2051 0 1 -3.051252,1.743084 1.8129139,3.0101293 29.2051 0 1 -0.113722,-3.512002 1.8129139,3.0101293 29.2051 0 1 2.436774,-1.887311 z m 0.311264,23.954814 c -0.852511,1.31405 -1.56842,3.400742 -3.779387,6.68595 -3.935053,5.846884 -5.587419,8.034317 -6.420308,9.285951 -0.832954,1.251601 0.669138,3.473513 7.678515,-0.862504 7.009345,-4.335982 13.30301,-12.9878 13.30301,-12.9878 0,0 -5.298866,7.395451 -7.697875,9.696708 -2.638717,2.531239 -6.331956,5.373216 -8.999994,6.365187 -2.66807,0.991972 -5.225339,0.612013 -6.01208,-0.345777 -0.786742,-0.957789 2.018292,-3.899751 4.823193,-7.457178 2.804869,-3.557426 6.909424,-10.364169 6.909424,-10.364169 z" />
  </g>
</svg>
